<svg xmlns="http://www.w3.org/2000/svg"
  xmlns:xlink="http://www.w3.org/1999/xlink" width="400" height="100">
  <path fill="#36c" stroke="#36c" d="M4.59 62.79L12.99 62.79Q13.57 77.59 25.78 77.59L25.78 77.59Q30.18 77.59 33.11 75.39L33.11 75.39Q37.21 72.22 37.21 66.50L37.21 66.50Q37.21 60.35 32.08 55.66L32.08 55.66Q28.56 52.54 20.02 47.61L20.02 47.61Q6.49 39.65 6.49 28.61L6.49 28.61Q6.49 21.63 10.89 16.80L10.89 16.80Q16.21 10.89 25.10 10.89L25.10 10.89Q41.65 10.89 43.90 30.81L43.90 30.81L35.69 30.81Q35.35 26.22 33.79 23.49L33.79 23.49Q30.66 17.97 25.10 17.97L25.10 17.97Q19.34 17.97 16.50 21.88L16.50 21.88Q14.50 24.66 14.50 27.98L14.50 27.98Q14.50 35.89 27.39 43.41L27.39 43.41Q35.35 48.05 39.60 52.29L39.60 52.29Q45.31 57.86 45.31 66.41L45.31 66.41Q45.31 74.46 40.19 79.39L40.19 79.39Q34.72 84.91 26.03 84.91L26.03 84.91Q15.14 84.91 9.08 76.90L9.08 76.90Q4.88 71.34 4.59 62.79L4.59 62.79ZM69.43 35.40L69.43 22.51L77.05 22.51L77.05 35.40L88.82 35.40L88.82 42.58L77.05 42.58L77.05 72.85Q77.05 76.27 80.86 76.27L80.86 76.27Q85.50 76.27 89.50 75.49L89.50 75.49L89.50 82.96Q83.59 83.79 79.35 83.79L79.35 83.79Q69.43 83.79 69.43 73.88L69.43 73.88L69.43 42.58L60.01 42.58L60.01 35.40L69.43 35.40ZM136.18 68.16L143.99 68.16Q139.65 84.86 125.10 84.86L125.10 84.86Q116.06 84.86 110.79 77.34L110.79 77.34Q106.01 70.46 106.01 59.18L106.01 59.18Q106.01 48.39 110.50 41.50L110.50 41.50Q115.77 33.50 125 33.50L125 33.50Q143.02 33.50 144.19 60.69L144.19 60.69L113.53 60.69Q114.11 78.17 125.20 78.17L125.20 78.17Q133.98 78.17 136.18 68.16L136.18 68.16ZM113.82 54.30L136.18 54.30Q134.57 40.19 125 40.19L125 40.19Q115.77 40.19 113.82 54.30L113.82 54.30ZM170.90 82.91L155.08 35.40L163.48 35.40L175 73.78L186.47 35.40L194.87 35.40L179.10 82.91L170.90 82.91ZM236.18 68.16L243.99 68.16Q239.65 84.86 225.10 84.86L225.10 84.86Q216.06 84.86 210.79 77.34L210.79 77.34Q206.01 70.46 206.01 59.18L206.01 59.18Q206.01 48.39 210.50 41.50L210.50 41.50Q215.77 33.50 225 33.50L225 33.50Q243.02 33.50 244.19 60.69L244.19 60.69L213.53 60.69Q214.11 78.17 225.20 78.17L225.20 78.17Q233.98 78.17 236.18 68.16L236.18 68.16ZM213.82 54.30L236.18 54.30Q234.57 40.19 225 40.19L225 40.19Q215.77 40.19 213.82 54.30L213.82 54.30ZM320.21 45.70L306.01 12.89L315.04 12.89L325 37.50L335.01 12.89L343.99 12.89L329.83 45.70L346.53 82.91L337.11 82.91L325 53.66L312.94 82.91L303.52 82.91L320.21 45.70ZM357.32 68.41L357.32 35.40L364.75 35.40L364.75 67.63Q364.75 77.93 372.90 77.93L372.90 77.93Q378.17 77.93 382.18 74.02L382.18 74.02Q385.79 70.56 385.79 64.89L385.79 64.89L385.79 35.40L393.21 35.40L393.21 82.91L387.70 82.91L386.38 77.29Q379.83 84.91 371.24 84.91L371.24 84.91Q363.77 84.91 360.01 79.20L360.01 79.20Q357.32 75 357.32 68.41L357.32 68.41Z"/>
</svg>